:SAMPLES-PER-SECOND 30
:FULLY-SPECIFIED
:DEGREES
685
root  49.4883 34.8579 39.4303 -168.234 -40.8658 178.017
RightUpLeg  -8.25654 -23.8631 -1.47432
RightLeg  10.7646 -10.6776 -1.31493
RightFoot  0.512734 0.00139062 0.140332
RightToes  -23.8508 -0.103949 -0.20704
Spine  -0.838707 1.04159 0.0482456
Spine1  -1.70969 2.28034 0.740798
HEad  -62.152 -3.05381 -0.321918
LeftShoulder1  -1.94126e-019 -3.10601e-018 -2.51263e-017
LeftArm  -23.5216 26.5042 -82.1134
LeftForeArm  30.5988 -10.4055 -1.8151
LeftHand  -0.43726 -1.46416 7.57024
RightShoulder  -4.96962e-017 0 -2.36833e-017
RightArm  -21.167 -17.3772 74.9474
RightForeArm  51.0776 16.3091 1.17207
RightHand  -0.362524 -1.62667 -11.0413
LeftUpLeg  -11.036 3.14488 -2.82754
LeftLeg  10.9079 18.0557 2.24899
LeftFoot  1.56388 -0.00597021 0.690422
LeftToes  -15.8667 1.31378e-006 1.14341e-007
686
root  49.2092 34.8682 39.4212 -167.942 -40.4011 177.957
RightUpLeg  -8.16644 -23.9658 -1.91925
RightLeg  10.4961 -10.2069 -1.20937
RightFoot  0.912337 0.00461686 0.0691031
RightToes  -24.7531 -0.109509 -0.213897
Spine  -0.876671 0.986012 -0.156042
Spine1  -1.78681 2.13599 0.368976
HEad  -63.6236 -1.94165 -0.00219832
LeftShoulder1  -1.94126e-019 -3.10601e-018 -2.51263e-017
LeftArm  -22.2315 26.2918 -80.9555
LeftForeArm  30.1954 -10.581 -1.84229
LeftHand  -0.441517 -1.51164 7.59355
RightShoulder  -4.96962e-017 0 -2.36833e-017
RightArm  -19.9167 -17.0476 75.2265
RightForeArm  51.0521 16.3339 1.17331
RightHand  -0.364913 -1.51104 -10.7962
LeftUpLeg  -10.5242 3.00057 -3.25527
LeftLeg  10.0608 18.6573 2.04693
LeftFoot  1.39566 -0.00595763 0.650721
LeftToes  -15.1422 1.31378e-006 1.14341e-007
687
root  48.9207 34.8636 39.3905 -167.585 -39.9061 177.907
RightUpLeg  -8.38233 -24.0327 -2.34156
RightLeg  10.7489 -9.72893 -1.19673
RightFoot  1.15045 0.00586508 0.0322955
RightToes  -25.8076 -0.116143 -0.221798
Spine  -0.992937 0.936463 -0.362217
Spine1  -2.02165 2.0066 -0.0148542
HEad  -64.4203 -1.05157 0.430233
LeftShoulder1  -1.94126e-019 -3.10601e-018 -2.51263e-017
LeftArm  -22.5368 26.1443 -79.8416
LeftForeArm  29.6064 -10.7001 -1.86002
LeftHand  -0.459512 -1.42 7.99565
RightShoulder  -4.96962e-017 0 -2.36833e-017
RightArm  -18.8179 -17.1419 75.4411
RightForeArm  51.2585 16.9846 1.28519
RightHand  -0.36233 -1.4009 -10.4341
LeftUpLeg  -10.078 3.98036 -3.73548
LeftLeg  9.24885 18.179 1.74054
LeftFoot  0.966521 -0.00281022 0.494776
LeftToes  -13.8563 1.31378e-006 1.14341e-007
688
root  48.5878 34.8412 39.3687 -167.214 -39.4062 177.74
RightUpLeg  -9.03225 -23.6654 -2.94503
RightLeg  12.0988 -9.6612 -1.41928
RightFoot  0.945088 0.00368697 0.068341
RightToes  -26.4198 -0.12006 -0.226329
Spine  -1.11574 0.951425 -0.570901
Spine1  -2.27159 2.01101 -0.414384
HEad  -64.6312 -0.640731 0.961131
LeftShoulder1  -1.94126e-019 -3.10601e-018 -2.51263e-017
LeftArm  -23.4086 25.8659 -78.8941
LeftForeArm  28.8285 -10.7438 -1.86702
LeftHand  -0.467989 -1.09233 8.52511
RightShoulder  -4.96962e-017 0 -2.36833e-017
RightArm  -18.5757 -17.4015 75.5126
RightForeArm  51.4041 17.3562 1.3549
RightHand  -0.367605 -1.23942 -10.1933
LeftUpLeg  -9.65004 3.34248 -4.26379
LeftLeg  8.69022 19.1932 1.64912
LeftFoot  0.622271 -0.00125481 0.392697
LeftToes  -13.2281 1.31378e-006 1.14341e-007
689
root  48.2145 34.7917 39.3427 -166.895 -39.2462 177.417
RightUpLeg  -9.7999 -23.1631 -3.76438
RightLeg  14.2602 -10.0228 -1.85865
RightFoot  0.359428 0.000683056 0.169879
RightToes  -26.7709 -0.122329 -0.228909
Spine  -1.19037 0.914968 -0.781734
Spine1  -2.42707 1.91823 -0.826143
HEad  -64.3793 -0.710731 1.57419
LeftShoulder1  -1.94126e-019 -3.10601e-018 -2.51263e-017
LeftArm  -24.2538 25.4357 -78.0886
LeftForeArm  28.0299 -10.7406 -1.86661
LeftHand  -0.485907 -0.829005 9.19906
RightShoulder  -4.96962e-017 0 -2.36833e-017
RightArm  -19.1827 -17.7267 75.5145
RightForeArm  51.3616 17.4286 1.38606
RightHand  -0.369227 -1.23351 -10.1471
LeftUpLeg  -9.11151 3.00451 -4.94657
LeftLeg  8.29236 19.5962 1.54819
LeftFoot  -0.0230006 1.13217e-006 0.165793
LeftToes  -12.144 1.31378e-006 1.14341e-007
